<?xml version="1.0" encoding="utf-8"?>
<!-- Generator: Adobe Illustrator 19.0.0, SVG Export Plug-In . SVG Version: 6.00 Build 0)  -->
<svg version="1.1" id="Layer_1" xmlns="http://www.w3.org/2000/svg" xmlns:xlink="http://www.w3.org/1999/xlink" x="0px" y="0px"
	 viewBox="0 0 176.6 149.4" style="enable-background:new 0 0 176.6 149.4;" xml:space="preserve">
<g>
	<path style="fill:#525254;" d="M3.1,144.2c0.4,0.9,1,1.6,1.8,2.2c0.8,0.5,1.7,0.9,2.7,1.2c1.1,0.2,2.2,0.3,3.4,0.3
		c0.7,0,1.4-0.1,2.2-0.3c0.8-0.2,1.6-0.5,2.3-0.9c0.7-0.4,1.3-1,1.7-1.7c0.5-0.7,0.7-1.5,0.7-2.4c0-0.7-0.2-1.4-0.5-1.9
		c-0.3-0.5-0.8-1-1.3-1.4c-0.5-0.4-1.1-0.7-1.7-0.9c-0.6-0.2-1.3-0.4-1.9-0.6l-5.9-1.4c-0.8-0.2-1.5-0.4-2.2-0.7
		c-0.7-0.3-1.4-0.7-1.9-1.2c-0.5-0.5-1-1.1-1.3-1.8C1,131.9,0.9,131,0.9,130c0-0.6,0.1-1.4,0.4-2.2c0.2-0.9,0.7-1.7,1.4-2.4
		c0.7-0.8,1.6-1.4,2.8-1.9c1.2-0.5,2.7-0.8,4.5-0.8c1.3,0,2.5,0.2,3.7,0.5c1.2,0.3,2.2,0.9,3.1,1.5c0.9,0.7,1.6,1.5,2.1,2.6
		c0.5,1,0.8,2.2,0.8,3.6h-2.5c0-1-0.3-1.9-0.7-2.6c-0.4-0.7-0.9-1.4-1.6-1.9c-0.7-0.5-1.4-0.9-2.2-1.1c-0.8-0.3-1.7-0.4-2.7-0.4
		c-0.9,0-1.7,0.1-2.5,0.3c-0.8,0.2-1.5,0.5-2.1,0.9c-0.6,0.4-1.1,0.9-1.5,1.6c-0.4,0.7-0.6,1.5-0.6,2.5c0,0.6,0.1,1.1,0.3,1.6
		c0.2,0.5,0.5,0.8,0.9,1.2c0.4,0.3,0.8,0.6,1.3,0.8c0.5,0.2,1,0.4,1.5,0.5l6.4,1.6c0.9,0.2,1.8,0.5,2.6,0.9c0.8,0.4,1.5,0.8,2.2,1.3
		c0.6,0.5,1.1,1.2,1.5,1.9c0.4,0.8,0.5,1.7,0.5,2.8c0,0.3,0,0.7-0.1,1.2c-0.1,0.5-0.2,1-0.4,1.6c-0.2,0.6-0.6,1.1-1,1.7
		c-0.4,0.6-1,1.1-1.8,1.5c-0.7,0.5-1.7,0.8-2.8,1.1c-1.1,0.3-2.4,0.4-4,0.4c-1.5,0-3-0.2-4.3-0.5c-1.3-0.4-2.5-0.9-3.4-1.6
		c-0.9-0.7-1.6-1.7-2.2-2.8c-0.5-1.2-0.7-2.5-0.6-4.2h2.5C2.5,142.1,2.7,143.2,3.1,144.2z"/>
	<path style="fill:#525254;" d="M41.7,123.1v2.1H26v9.5h14.6v2.1H26v10.4h15.8v2.1H23.5v-26.3H41.7z"/>
	<path style="fill:#525254;" d="M48.1,123.1l15.3,22.2h0.1v-22.2H66v26.3h-2.8l-15.3-22.2h-0.1v22.2h-2.5v-26.3H48.1z"/>
	<path style="fill:#525254;" d="M73,144.2c0.4,0.9,1,1.6,1.8,2.2c0.8,0.5,1.7,0.9,2.7,1.2c1.1,0.2,2.2,0.3,3.4,0.3
		c0.7,0,1.4-0.1,2.2-0.3c0.8-0.2,1.6-0.5,2.3-0.9c0.7-0.4,1.3-1,1.7-1.7c0.5-0.7,0.7-1.5,0.7-2.4c0-0.7-0.2-1.4-0.5-1.9
		c-0.3-0.5-0.8-1-1.3-1.4c-0.5-0.4-1.1-0.7-1.7-0.9c-0.6-0.2-1.3-0.4-1.9-0.6l-5.8-1.4c-0.8-0.2-1.5-0.4-2.2-0.7s-1.4-0.7-1.9-1.2
		c-0.5-0.5-1-1.1-1.3-1.8c-0.3-0.7-0.5-1.6-0.5-2.6c0-0.6,0.1-1.4,0.4-2.2c0.2-0.9,0.7-1.7,1.4-2.4c0.7-0.8,1.6-1.4,2.8-1.9
		c1.2-0.5,2.7-0.8,4.5-0.8c1.3,0,2.5,0.2,3.7,0.5c1.2,0.3,2.2,0.9,3.1,1.5c0.9,0.7,1.6,1.5,2.1,2.6c0.5,1,0.8,2.2,0.8,3.6H87
		c-0.1-1-0.3-1.9-0.7-2.6c-0.4-0.7-0.9-1.4-1.6-1.9c-0.7-0.5-1.4-0.9-2.2-1.1c-0.8-0.3-1.7-0.4-2.7-0.4c-0.9,0-1.7,0.1-2.5,0.3
		c-0.8,0.2-1.5,0.5-2.1,0.9c-0.6,0.4-1.1,0.9-1.5,1.6c-0.4,0.7-0.6,1.5-0.6,2.5c0,0.6,0.1,1.1,0.3,1.6c0.2,0.5,0.5,0.8,0.9,1.2
		c0.4,0.3,0.8,0.6,1.3,0.8c0.5,0.2,1,0.4,1.5,0.5l6.4,1.6c0.9,0.2,1.8,0.5,2.6,0.9c0.8,0.4,1.5,0.8,2.2,1.3c0.6,0.5,1.1,1.2,1.5,1.9
		c0.4,0.8,0.5,1.7,0.5,2.8c0,0.3,0,0.7-0.1,1.2c-0.1,0.5-0.2,1-0.4,1.6c-0.2,0.6-0.6,1.1-1,1.7s-1,1.1-1.8,1.5
		c-0.8,0.5-1.7,0.8-2.8,1.1c-1.1,0.3-2.4,0.4-4,0.4c-1.5,0-3-0.2-4.3-0.5c-1.3-0.4-2.5-0.9-3.4-1.6c-0.9-0.7-1.6-1.7-2.2-2.8
		c-0.5-1.2-0.7-2.5-0.6-4.2h2.5C72.4,142.1,72.6,143.2,73,144.2z"/>
	<path style="fill:#525254;" d="M104.9,123.1l10.3,26.3h-2.7l-3.2-8.2h-12l-3.2,8.2h-2.6l10.6-26.3H104.9z M108.5,139.1l-5.1-13.5
		l-5.3,13.5H108.5z"/>
	<path style="fill:#525254;" d="M129.6,123.1c1.1,0,2.1,0.1,3.1,0.4c1,0.3,1.8,0.7,2.5,1.2c0.7,0.6,1.3,1.3,1.7,2.1
		c0.4,0.9,0.6,1.9,0.6,3.1c0,1.7-0.4,3.1-1.3,4.3c-0.9,1.2-2.1,2-3.8,2.4v0.1c0.9,0.1,1.6,0.3,2.1,0.7c0.6,0.3,1,0.8,1.4,1.3
		c0.4,0.5,0.6,1.1,0.8,1.8c0.2,0.7,0.3,1.4,0.3,2.2c0,0.4,0,1,0.1,1.6c0,0.6,0.1,1.3,0.1,1.9c0.1,0.7,0.2,1.3,0.3,1.8
		c0.2,0.6,0.4,1,0.6,1.3h-2.8c-0.1-0.2-0.3-0.5-0.3-0.9c-0.1-0.4-0.1-0.7-0.2-1.1c0-0.4-0.1-0.8-0.1-1.1c0-0.4,0-0.7-0.1-1
		c0-0.9-0.1-1.9-0.2-2.8c-0.1-0.9-0.3-1.7-0.7-2.5c-0.4-0.7-0.9-1.3-1.5-1.7c-0.7-0.4-1.6-0.6-2.8-0.6h-9.5v11.7h-2.5v-26.3H129.6z
		 M129.5,135.6c0.8,0,1.5-0.1,2.2-0.3c0.7-0.2,1.3-0.6,1.8-1c0.5-0.4,0.9-1,1.2-1.6c0.3-0.6,0.5-1.3,0.5-2.2c0-1.6-0.5-2.9-1.4-3.8
		c-0.9-0.9-2.4-1.4-4.3-1.4h-9.3v10.3H129.5z"/>
	<path style="fill:#525254;" d="M147.6,123.1v26.3h-2.5v-26.3H147.6z"/>
	<path style="fill:#525254;" d="M152.6,131.1c0.5-1.6,1.3-3.1,2.3-4.4c1-1.3,2.3-2.3,3.9-3c1.6-0.7,3.4-1.1,5.4-1.1
		c2.1,0,3.9,0.4,5.4,1.1c1.5,0.7,2.8,1.8,3.9,3c1,1.3,1.8,2.7,2.3,4.4c0.5,1.6,0.8,3.4,0.8,5.2c0,1.8-0.3,3.5-0.8,5.2
		c-0.5,1.6-1.3,3.1-2.3,4.3c-1,1.3-2.3,2.3-3.9,3c-1.5,0.7-3.3,1.1-5.4,1.1c-2.1,0-3.9-0.4-5.4-1.1c-1.6-0.7-2.9-1.7-3.9-3
		c-1-1.2-1.8-2.7-2.3-4.3c-0.5-1.6-0.8-3.4-0.8-5.2C151.9,134.5,152.1,132.7,152.6,131.1z M154.9,140.5c0.4,1.4,1,2.6,1.8,3.7
		c0.8,1.1,1.8,2,3.1,2.6c1.3,0.7,2.7,1,4.5,1c1.7,0,3.2-0.3,4.5-1c1.2-0.7,2.3-1.5,3.1-2.6c0.8-1.1,1.4-2.3,1.8-3.7
		c0.4-1.4,0.6-2.8,0.6-4.2c0-1.4-0.2-2.9-0.6-4.2c-0.4-1.4-1-2.6-1.8-3.7c-0.8-1.1-1.8-2-3.1-2.6c-1.2-0.7-2.7-1-4.5-1
		c-1.7,0-3.2,0.3-4.5,1c-1.3,0.7-2.3,1.5-3.1,2.6c-0.8,1.1-1.4,2.3-1.8,3.7c-0.4,1.4-0.6,2.8-0.6,4.2
		C154.4,137.7,154.6,139.1,154.9,140.5z"/>
</g>
<g>
	<g>
		<path style="fill:#525254;" d="M84.9,100.8l-0.1,0l-28.9-7.1L44,69.7l20.2,0.2l5,9.2l15.2,6.2l12.3-1.4l7.4-9.4l-4.3-8.1
			l-12.9-4.7l-9.7-1.4l-21.3-7.8l-0.1-0.2l-9.2-21.2l9.3-21.4l26.9-7.1l0.1,0L109,9.7l13,23.9h-20.6L93.1,21l-13-2.1l-10.9,2
			l-2.7,10l4.7,6l10.4,3.5l17.5,4.9l15.6,6.4l10.7,19.9l-10.7,21.4l-0.2,0.1L84.9,100.8z M56.5,93l28.4,6.9l29.1-7.6l10.3-20.6
			L114,52.4l-15.3-6.2l-17.5-4.9l-10.6-3.5l-5.1-6.6l2.9-11L80,18l13.6,2.1l8.4,12.6h18.6l-12.2-22.3L82.8,3.5l-26.3,6.9l-8.9,20.6
			l9,20.7l20.8,7.6l9.7,1.4l13.3,4.9l4.7,8.9l-8,10.2l-12.9,1.4l-0.1,0l-15.5-6.4l-4.9-9l-18.2-0.2L56.5,93z"/>
		
			<rect x="59.6" y="69.7" transform="matrix(0.9485 0.3166 -0.3166 0.9485 29.0023 -14.8155)" style="fill:#525254;" width="0.9" height="24.4"/>
		
			<rect x="62.1" y="77" transform="matrix(0.7445 0.6676 -0.6676 0.7445 73.6451 -19.6827)" style="fill:#525254;" width="0.9" height="18.8"/>
		
			<rect x="69.8" y="75" transform="matrix(0.265 0.9643 -0.9643 0.265 137.9599 -1.9214)" style="fill:#525254;" width="0.9" height="29"/>
		
			<rect x="40" y="84.9" transform="matrix(0.7983 0.6022 -0.6022 0.7983 64.4925 -21.9293)" style="fill:#525254;" width="50" height="0.9"/>
		
			<rect x="44.1" y="74.5" transform="matrix(0.9299 0.3679 -0.3679 0.9299 31.5443 -15.6287)" style="fill:#525254;" width="25.2" height="0.9"/>
		
			<rect x="63.4" y="89.5" transform="matrix(0.6116 0.7912 -0.7912 0.6116 100.9093 -25.6121)" style="fill:#525254;" width="26.3" height="0.9"/>
		
			<rect x="77.1" y="92.6" transform="matrix(2.369618e-02 0.9997 -0.9997 2.369618e-02 175.4256 6.4334)" style="fill:#525254;" width="14.7" height="0.9"/>
		
			<rect x="83.8" y="88.7" transform="matrix(0.974 0.2264 -0.2264 0.974 22.773 -20.1687)" style="fill:#525254;" width="30.9" height="0.9"/>
		
			<rect x="90.5" y="82.3" transform="matrix(0.8051 0.5932 -0.5932 0.8051 72.487 -35.9196)" style="fill:#525254;" width="0.9" height="20"/>
		
			<rect x="95.9" y="88" transform="matrix(0.9016 0.4326 -0.4326 0.9016 48.6737 -36.9777)" style="fill:#525254;" width="19.4" height="0.9"/>
		
			<rect x="110.4" y="62.6" transform="matrix(0.4103 0.9119 -0.9119 0.4103 136.4805 -55.1087)" style="fill:#525254;" width="0.9" height="30.7"/>
		
			<rect x="114" y="62.6" transform="matrix(0.1329 0.9911 -0.9911 0.1329 171.6561 -50.0624)" style="fill:#525254;" width="0.9" height="21"/>
		
			<rect x="108.7" y="50.3" transform="matrix(0.9156 0.402 -0.402 0.9156 34.5049 -38.5535)" style="fill:#525254;" width="0.9" height="25.2"/>
		
			<rect x="106.6" y="48.6" transform="matrix(0.7328 0.6805 -0.6805 0.7328 68.7539 -57.1065)" style="fill:#525254;" width="0.9" height="20.8"/>
		
			<rect x="99.8" y="68.5" transform="matrix(0.9814 0.192 -0.192 0.9814 15.3273 -20.2362)" style="fill:#525254;" width="24.6" height="0.9"/>
		
			<rect x="93.6" y="58.1" transform="matrix(0.7021 0.712 -0.712 0.7021 74.917 -61.9909)" style="fill:#525254;" width="35.9" height="0.9"/>
		
			<rect x="89.5" y="55.2" transform="matrix(4.408545e-02 0.999 -0.999 4.408545e-02 150.6115 -46.0835)" style="fill:#525254;" width="19.8" height="0.9"/>
		
			<rect x="75.2" y="52.8" transform="matrix(0.5972 0.8021 -0.8021 0.5972 79.1862 -51.263)" style="fill:#525254;" width="30.8" height="0.9"/>
		
			<rect x="73.7" y="50.6" transform="matrix(0.266 0.964 -0.964 0.266 111.0194 -43.761)" style="fill:#525254;" width="21.1" height="0.9"/>
		
			<rect x="92.6" y="43.7" transform="matrix(0.7916 0.611 -0.611 0.7916 52.048 -45.6803)" style="fill:#525254;" width="0.9" height="19.5"/>
		
			<rect x="87.7" y="39.9" transform="matrix(0.5431 0.8397 -0.8397 0.5431 84.5677 -49.8609)" style="fill:#525254;" width="0.9" height="25.8"/>
		
			<rect x="78.9" y="40.6" transform="matrix(0.9761 0.2172 -0.2172 0.9761 12.8269 -16.0351)" style="fill:#525254;" width="0.9" height="19.4"/>
		
			<rect x="68.4" y="32.7" transform="matrix(0.4057 0.914 -0.914 0.4057 83.3799 -35.3052)" style="fill:#525254;" width="0.9" height="27.6"/>
		
			<rect x="63.2" y="34.3" transform="matrix(0.7069 0.7073 -0.7073 0.7069 50.2707 -31.8709)" style="fill:#525254;" width="0.9" height="20.8"/>
		
			<rect x="62.5" y="48.1" transform="matrix(0.2707 0.9627 -0.9627 0.2707 100.7898 -35.9037)" style="fill:#525254;" width="23.3" height="0.9"/>
		
			<rect x="41.5" y="44.7" transform="matrix(0.7134 0.7007 -0.7007 0.7134 49.5166 -30.7588)" style="fill:#525254;" width="41.7" height="0.9"/>
		
			<rect x="47.5" y="30.4" transform="matrix(0.9996 2.819288e-02 -2.819288e-02 0.9996 0.891 -1.588)" style="fill:#525254;" width="18.6" height="0.9"/>
		
			<rect x="60.5" y="29.9" transform="matrix(0.9017 0.4324 -0.4324 0.9017 24.008 -22.2658)" style="fill:#525254;" width="0.9" height="23.5"/>
		
			<rect x="55.6" y="10.1" transform="matrix(1 7.885469e-03 -7.885469e-03 1 0.2474 -0.4411)" style="fill:#525254;" width="0.9" height="42.2"/>
		
			<rect x="54.3" y="14.9" transform="matrix(0.7682 0.6402 -0.6402 0.7682 24.2965 -36.4872)" style="fill:#525254;" width="16.4" height="0.9"/>
		
			<rect x="57.5" y="13.8" transform="matrix(0.4355 0.9002 -0.9002 0.4355 55.9675 -37.6274)" style="fill:#525254;" width="0.9" height="24.1"/>
		
			<rect x="64.4" y="-5.8" transform="matrix(0.625 0.7806 -0.7806 0.625 37.4882 -44.2634)" style="fill:#525254;" width="0.9" height="45.3"/>
		
			<rect x="75.1" y="0.3" transform="matrix(0.7831 0.6219 -0.6219 0.7831 23.5568 -44.4437)" style="fill:#525254;" width="0.9" height="22.6"/>
		
			<rect x="55.5" y="13.8" transform="matrix(0.943 0.3328 -0.3328 0.943 8.6283 -21.8616)" style="fill:#525254;" width="25.2" height="0.9"/>
		
			<rect x="81" y="2.9" transform="matrix(0.9837 0.1795 -0.1795 0.9837 3.2551 -14.4483)" style="fill:#525254;" width="0.9" height="15.7"/>
		
			<rect x="77.9" y="11.4" transform="matrix(0.5145 0.8575 -0.8575 0.5145 52.8959 -69.8082)" style="fill:#525254;" width="20.4" height="0.9"/>
		
			<rect x="100.6" y="6" transform="matrix(0.5622 0.827 -0.827 0.5622 56.9052 -76.8676)" style="fill:#525254;" width="0.9" height="18.6"/>
		
			<rect x="93.8" y="-1" transform="matrix(0.2677 0.9635 -0.9635 0.2677 82.574 -80.4692)" style="fill:#525254;" width="0.9" height="30.2"/>
		
			<rect x="104.7" y="9.5" transform="matrix(0.9562 0.2927 -0.2927 0.9562 10.9836 -29.8281)" style="fill:#525254;" width="0.9" height="24.5"/>
		
			<rect x="91.6" y="26.3" transform="matrix(0.9096 0.4154 -0.4154 0.9096 20.7732 -42.1111)" style="fill:#525254;" width="31.2" height="0.9"/>
		
			<rect x="77.7" y="17.7" transform="matrix(0.7878 0.6159 -0.6159 0.7878 32.8218 -59.044)" style="fill:#525254;" width="48.9" height="0.9"/>
		
			<rect x="99.1" y="83.1" transform="matrix(0.4742 0.8804 -0.8804 0.4742 131.1351 -52.4182)" style="fill:#525254;" width="20.7" height="0.9"/>
		
			<rect x="104.5" y="61.4" transform="matrix(0.5824 0.8129 -0.8129 0.5824 113.7481 -49.3477)" style="fill:#525254;" width="0.9" height="49.2"/>
		<rect x="113.9" y="52.1" style="fill:#525254;" width="0.9" height="40.6"/>
		
			<rect x="99.9" y="41.9" transform="matrix(0.3066 0.9518 -0.9518 0.3066 123.4745 -56.2544)" style="fill:#525254;" width="0.9" height="29.5"/>
		
			<rect x="42.1" y="45.7" transform="matrix(0.7983 0.6022 -0.6022 0.7983 41.3043 -31.1025)" style="fill:#525254;" width="50" height="0.9"/>
		
			<rect x="46.8" y="33.6" transform="matrix(0.9684 0.2495 -0.2495 0.9684 10.3498 -13.5662)" style="fill:#525254;" width="23.9" height="0.9"/>
		
			<rect x="77.2" y="27.3" transform="matrix(0.146 0.9893 -0.9893 0.146 114.6582 -34.9854)" style="fill:#525254;" width="0.9" height="43.2"/>
		
			<rect x="76.5" y="55.8" transform="matrix(0.8155 0.5787 -0.5787 0.8155 51.5947 -49.315)" style="fill:#525254;" width="53.2" height="0.9"/>
	</g>
	<g>
		<circle style="fill:#525254;" cx="56.1" cy="9.6" r="2.6"/>
		<circle style="fill:#525254;" cx="47" cy="30.6" r="2.6"/>
		<circle style="fill:#525254;" cx="65.9" cy="30.7" r="2.6"/>
		<circle style="fill:#525254;" cx="70.8" cy="37" r="2.6"/>
		<circle style="fill:#525254;" cx="81.3" cy="40.4" r="2.6"/>
		<circle style="fill:#525254;" cx="98.8" cy="45.3" r="2.6"/>
		<circle style="fill:#525254;" cx="114.2" cy="51.7" r="2.6"/>
		<circle style="fill:#525254;" cx="124.7" cy="71.3" r="2.6"/>
		<circle style="fill:#525254;" cx="104.4" cy="74.1" r="2.6"/>
		<circle style="fill:#525254;" cx="96.7" cy="83.9" r="2.6"/>
		<circle style="fill:#525254;" cx="114.2" cy="92.7" r="2.6"/>
		<circle style="fill:#525254;" cx="84.7" cy="100" r="2.6"/>
		<circle style="fill:#525254;" cx="56.5" cy="92.7" r="2.6"/>
		<circle style="fill:#525254;" cx="45.3" cy="70.1" r="2.6"/>
		<circle style="fill:#525254;" cx="63.8" cy="70.1" r="2.6"/>
		<circle style="fill:#525254;" cx="68.7" cy="79" r="2.6"/>
		<circle style="fill:#525254;" cx="84.1" cy="85.3" r="2.6"/>
		<circle style="fill:#525254;" cx="100.2" cy="65.7" r="2.6"/>
		<circle style="fill:#525254;" cx="86.9" cy="60.8" r="2.6"/>
		<circle style="fill:#525254;" cx="77.1" cy="59.4" r="2.6"/>
		<circle style="fill:#525254;" cx="56.1" cy="51.7" r="2.6"/>
		<circle style="fill:#525254;" cx="68.7" cy="20.2" r="2.6"/>
		<circle style="fill:#525254;" cx="79.9" cy="18" r="2.6"/>
		<circle style="fill:#525254;" cx="93.2" cy="20.1" r="2.6"/>
		<circle style="fill:#525254;" cx="101.6" cy="32.7" r="2.6"/>
		<circle style="fill:#525254;" cx="121.2" cy="32.7" r="2.6"/>
		<circle style="fill:#525254;" cx="108.6" cy="9.6" r="2.6"/>
		<circle style="fill:#525254;" cx="82.7" cy="2.6" r="2.6"/>
	</g>
</g>
</svg>
